<?xml version="1.0" encoding="UTF-8" standalone="no"?>
<!-- Created with Inkscape (http://www.inkscape.org/) -->

<svg
   xmlns:dc="http://purl.org/dc/elements/1.1/"
   xmlns:cc="http://creativecommons.org/ns#"
   xmlns:rdf="http://www.w3.org/1999/02/22-rdf-syntax-ns#"
   xmlns:svg="http://www.w3.org/2000/svg"
   xmlns="http://www.w3.org/2000/svg"
   xmlns:sodipodi="http://sodipodi.sourceforge.net/DTD/sodipodi-0.dtd"
   xmlns:inkscape="http://www.inkscape.org/namespaces/inkscape"
   width="286.02451"
   height="36"
   id="svg3247"
   version="1.1"
   inkscape:version="0.92.4 (5da689c313, 2019-01-14)"
   sodipodi:docname="continuumizm logo-and-name-blackonwhite-x36px.svg">
  <defs
     id="defs3249" />
  <sodipodi:namedview
     id="base"
     pagecolor="#ffffff"
     bordercolor="#666666"
     borderopacity="1.0"
     inkscape:pageopacity="0.0"
     inkscape:pageshadow="2"
     inkscape:zoom="1"
     inkscape:cx="62.321967"
     inkscape:cy="19.399839"
     inkscape:document-units="px"
     inkscape:current-layer="layer1"
     showgrid="false"
     fit-margin-top="0"
     fit-margin-left="0"
     fit-margin-right="0"
     fit-margin-bottom="0"
     inkscape:window-width="1920"
     inkscape:window-height="1051"
     inkscape:window-x="-9"
     inkscape:window-y="-9"
     inkscape:window-maximized="1" />
  <metadata
     id="metadata3252">
    <rdf:RDF>
      <cc:Work
         rdf:about="">
        <dc:format>image/svg+xml</dc:format>
        <dc:type
           rdf:resource="http://purl.org/dc/dcmitype/StillImage" />
        <dc:title></dc:title>
      </cc:Work>
    </rdf:RDF>
  </metadata>
  <g
     inkscape:label="Layer 1"
     inkscape:groupmode="layer"
     id="layer1"
     transform="translate(-269.97536,-509.58093)">
    <path
       id="path3177"
       style="font-style:normal;font-variant:normal;font-weight:bold;font-stretch:normal;font-size:28px;line-height:125%;font-family:'Miedinger Bold';-inkscape-font-specification:'Miedinger Bold, Bold';text-align:center;letter-spacing:1px;word-spacing:0px;writing-mode:lr-tb;text-anchor:middle;fill:#000000;fill-opacity:1;stroke:none;stroke-width:0.63561004"
       d="M 274.48599,509.58093 V 522.432 h -4.51063 v 10.89361 L 287.08174,522.432 h -8.04254 v -4.38298 h 11.40424 v 4.76595 h 4.5532 v -13.23404 h -4.5532 v 4.89363 H 279.0392 v -4.89363 z m 25.10639,12.80852 -16.12766,10.29786 h 6.97872 v 4.51064 H 279.0392 v -4.89361 h -4.55321 v 13.27659 h 4.55321 v -4.76596 h 11.40424 v 4.76596 h 4.5532 v -12.89362 h 4.59574 z m 236.50751,11.80351 h -4.56662 V 520.883 h 6.58074 l 5.68041,8.7248 5.53191,-8.7248 h 6.67355 v 13.30996 h -4.55731 v -8.97541 l -5.68969,8.97541 h -3.81479 l -5.8382,-8.95685 z m -6.95334,-3.61058 v 3.61058 H 510.0819 v -3.11865 l 10.30271,-6.57145 h -9.86647 V 520.883 h 18.21073 v 3.00726 l -10.48834,6.69212 z m -26.03654,3.61058 V 520.883 h 4.5666 v 13.30996 z m -23.25203,0 h -4.56661 V 520.883 h 6.58073 l 5.68042,8.7248 5.5319,-8.7248 h 6.67357 v 13.30996 h -4.55733 v -8.97541 l -5.6897,8.97541 h -3.81477 l -5.83821,-8.95685 z m -23.61402,-6.44151 c 0,0.9777 0.28154,1.73569 0.84465,2.27402 0.56308,0.53835 1.56859,0.80753 3.01654,0.80753 h 3.66628 c 2.59888,0 3.89831,-1.02719 3.89833,-3.08155 V 520.883 h 4.56661 v 6.88701 c -3e-5,1.94918 -0.60953,3.53788 -1.82852,4.76617 -1.219,1.22829 -3.08154,1.84242 -5.58758,1.84242 h -5.78251 c -1.30564,0 -2.44265,-0.17016 -3.41104,-0.51048 -0.96838,-0.34034 -1.86718,-0.96377 -2.69633,-1.87028 -0.82917,-0.90651 -1.24376,-2.31577 -1.24376,-4.22783 V 520.883 h 4.55733 z m -23.3263,0 c 0,0.9777 0.28156,1.73569 0.84464,2.27402 0.56309,0.53835 1.56862,0.80753 3.01657,0.80753 h 3.66628 c 2.59886,0 3.8983,-1.02719 3.89832,-3.08155 V 520.883 h 4.56661 v 6.88701 c -2e-5,1.94918 -0.60953,3.53788 -1.8285,4.76617 -1.21903,1.22829 -3.08155,1.84242 -5.5876,1.84242 h -5.7825 c -1.30565,0 -2.44265,-0.17016 -3.41105,-0.51048 -0.9684,-0.34034 -1.86717,-0.96377 -2.69632,-1.87028 -0.82918,-0.90651 -1.24376,-2.31577 -1.24376,-4.22783 V 520.883 h 4.55731 z m -7.6216,-6.86845 v 13.30996 h -4.94715 l -11.21233,-8.53918 v 8.53918 h -4.5666 v -13.32854 h 5.45765 l 10.70181,8.15863 V 520.883 Z m -28.6447,13.30996 V 520.883 h 4.56659 v 13.30996 z m -2.2011,-9.6901 h -7.24902 v 9.6901 h -4.55733 v -9.6901 h -7.26759 V 520.883 h 19.07394 z M 373.17523,520.883 v 13.30996 h -4.94715 l -11.21232,-8.53918 v 8.53918 h -4.5666 v -13.32854 h 5.45765 l 10.70181,8.15863 V 520.883 Z m -44.48859,9.30956 c -0.26609,-0.79203 -0.39912,-1.66299 -0.39912,-2.61281 0,-0.94981 0.13304,-1.82386 0.39912,-2.62209 0.26606,-0.79823 0.6822,-1.52374 1.24838,-2.17657 0.56618,-0.6528 1.33348,-1.16328 2.30186,-1.53148 0.96841,-0.36815 2.10541,-0.55225 3.41104,-0.55227 h 6.80351 c 1.28085,2e-5 2.41167,0.18721 3.39246,0.56156 0.98075,0.37438 1.75732,0.88795 2.32972,1.54075 0.57234,0.65283 0.99775,1.37836 1.27622,2.17657 0.27845,0.79823 0.41766,1.66608 0.41769,2.60353 -3e-5,0.93744 -0.13924,1.8022 -0.41769,2.59423 -0.27847,0.79205 -0.70697,1.50829 -1.28551,2.14873 -0.57858,0.64043 -1.35206,1.14318 -2.32043,1.50828 -0.96841,0.36507 -2.09924,0.54761 -3.39246,0.54761 h -6.80351 c -1.30563,0 -2.44263,-0.17944 -3.41104,-0.53833 -0.96838,-0.3589 -1.73568,-0.85855 -2.30186,-1.499 -0.56618,-0.64044 -0.98232,-1.35668 -1.24838,-2.14871 z m 4.16749,-2.63602 c -2e-5,0.99005 0.28462,1.78364 0.85391,2.38076 0.56927,0.59712 1.57171,0.8957 3.00728,0.8957 h 4.69655 c 2.59887,0 3.89521,-1.09215 3.88905,-3.27646 -2e-5,-2.19048 -1.29637,-3.28572 -3.88905,-3.28573 h -4.69655 c -2.57414,10e-6 -3.86121,1.09525 -3.86119,3.28573 z m -22.50949,0.0185 c -2e-5,0.99004 0.28461,1.78054 0.8539,2.37147 0.56928,0.59095 1.5717,0.88642 3.00728,0.88642 h 3.93546 c 1.94914,0 3.15266,-0.60332 3.6106,-1.80994 h 4.7151 c -0.2661,1.59645 -1.0009,2.88817 -2.20442,3.87511 -1.20353,0.98696 -2.89745,1.48043 -5.08173,1.48043 h -6.04241 c -1.30562,0 -2.44262,-0.17944 -3.41103,-0.53832 -0.96839,-0.3589 -1.86871,-1.004 -2.70099,-1.93524 -0.83225,-0.93127 -1.24837,-2.36838 -1.24837,-4.31137 0,-2.45036 0.71005,-4.21235 2.13016,-5.28593 1.4201,-1.07358 3.1635,-1.61038 5.23023,-1.61039 h 6.04241 c 2.10384,10e-6 3.76063,0.48421 4.97036,1.45259 1.2097,0.96842 1.96924,2.2199 2.27865,3.75446 h -4.77079 c -0.51979,-1.08904 -1.69239,-1.63357 -3.51777,-1.63359 h -3.93546 c -2.57413,2e-5 -3.8612,1.10145 -3.86118,3.3043 z"
       inkscape:connector-curvature="0" />
  </g>
</svg>
